<svg viewBox="0 0 1440 467" fill="none" xmlns="http://www.w3.org/2000/svg">
<path fill-rule="evenodd" clip-rule="evenodd" d="M0 184.786L80.4 169.107C159.6 153.429 320.4 122.071 480 90.7143C639.6 59.3571 800.4 28 960 28C1119.6 28 1280.4 59.3571 1359.6 75.0357L1440 90.7143V467H1359.6C1280.4 467 1119.6 467 960 467C800.4 467 639.6 467 480 467C320.4 467 159.6 467 80.4 467H0V184.786Z" fill="#0099FF"/>
<path fill-rule="evenodd" clip-rule="evenodd" d="M1440 233.5H1380C1320 233.5 1200 233.5 1080 262.688C960 291.875 840 350.25 720 359.979C600 369.708 480 330.792 360 262.688C240 194.583 120 97.2917 59.9999 48.6458L-5.72205e-05 0V467H59.9999C120 467 240 467 360 467C480 467 600 467 720 467C840 467 960 467 1080 467C1200 467 1320 467 1380 467H1440V233.5Z" fill="#007FD3"/>
</svg>
